<svg xmlns="http://www.w3.org/2000/svg" viewBox="0 0 269.463 76.549" overflow="visible"><path d="M238.092 9.99c1.999 1.025 3.288 3.18 5.067 4.541-.058-4.61 5.176-6.958 8.746-4.105 2.208 1.765 5.222 5.111 7.264 7.242.247.258.174.624.513.528 2.895-4.363 9.777-2.467 9.781 2.883 0 5.593-7.094 7.231-10.035 2.706-1.197 1.785-3.088 3.184-4.547 4.802 4.13 0 6.758 4.244 4.817 7.952-.807 1.542-5.724 6.206-7.264 7.586-.328.296-.799.647-1.224.786l1.232.948c5.519 5.978-4.636 13.001-8.368 6.61-1.602-2.744-.621-5.673 1.718-7.558-1.953-1.079-3.32-3.072-4.983-4.541.019 3.909-3.783 6.403-7.426 4.973-1.401-.552-7.067-6.326-8.306-7.767-.258-.301-.525-.651-.614-1.048l-1.393 1.483c-2.825 2.298-7.43.918-8.383-2.628-1.663-6.19 6.349-9.528 9.692-4.267l4.631-4.803c-3.856-.011-6.361-3.657-5.029-7.292.625-1.711 6.264-6.93 7.908-8.511.244-.235.545-.377.792-.605-4.312-2.247-3.053-9.327 1.833-9.863 6.036-.659 8.375 6.637 3.585 9.948Zm-3.543-8.51c-3.987.678-4.034 6.81-.178 7.6 6.226 1.272 6.349-8.649.178-7.6m0 9.25c-.529.089-1.104.416-1.533.74-1.084.829-6.754 6.468-7.371 7.478-2.146 3.515 1.941 7.523 5.442 5.257l7.8-7.921c1.382-3.103-.927-6.136-4.338-5.554m20.498 5.019c-1.513-1.326-3.871-4.768-5.871-5.046-1.736-.243-3.535.532-4.249 2.186-1.432 3.326 1.675 4.929 3.562 7.045 1.969-1.75 3.528-4.502 6.554-4.189Zm-14.335-1.396c.371 3.122-2.616 4.521-4.183 6.695 1.293 1.187 2.844 3.427 4.662 3.735 2.783.474 5.002-1.815 4.577-4.571-.301-1.962-3.739-4.386-5.056-5.859m13.412 2.837c-.528.089-1.103.416-1.532.74-1.015.771-7.132 6.915-7.584 7.79-1.822 3.546 2.281 7.096 5.546 5.018.826-.528 7.156-6.88 7.666-7.705 1.833-2.96-.711-6.413-4.099-5.839Zm9.804 0c-3.404.243-4.96 4.633-2.243 6.857 3.501 2.868 8.028-1.453 5.744-5.038-.68-1.067-2.22-1.911-3.501-1.819m-25.373 7.875c-.104-.124-1.131-.995-1.278-1.084-1.528-.901-3.33-.262-4.608.756-1.185.944-6.554 6.31-7.082 7.416-1.895 3.951 2.582 7.377 6.04 4.633 1.069-.848 6.851-6.61 7.306-7.539.637-1.292.571-3.065-.378-4.186Zm-19.205 4.868c-3.281.354-4.69 4.69-2.065 6.857 3.381 2.794 7.993-1.319 5.804-4.926-.752-1.238-2.296-2.089-3.743-1.935Zm24.979.886c-1.841-1.202-4.122-.99-5.438.833-2.737 3.796 2.111 6.186 4.18 8.711.181-2.972 2.439-4.41 4.268-6.395l-3.01-3.153Zm9.973-.709c-.563.096-1.42.559-1.88.913-1.038.798-6.835 6.618-7.306 7.544-1.795 3.515 1.884 7.011 5.272 5.265.938-.482 7.542-7.116 8.013-8.056 1.482-2.956-.884-6.202-4.099-5.662Zm-25.477 9.035c2.346 2.166 5.199 7.015 8.904 4.44 1.301-.906 1.806-2.421 1.544-3.962-.29-1.708-2.644-3.207-3.74-4.479-2.092 1.572-3.624 4.402-6.704 4.005Zm17.017 13.205c3.636 3.631 9.074-1.835 5.538-5.443-3.562-3.634-9.159 1.827-5.538 5.443" fill="#feecd6"/><path d="M254.428 30.124c3.215-.54 5.581 2.705 4.099 5.662-.471.94-7.078 7.573-8.012 8.055-3.389 1.746-7.067-1.75-5.273-5.265.471-.921 6.264-6.741 7.307-7.543.459-.354 1.316-.817 1.879-.913Zm-9.973.709 3.01 3.153c-1.829 1.985-4.087 3.422-4.268 6.394-2.069-2.528-6.92-4.914-4.18-8.711 1.316-1.827 3.597-2.035 5.438-.832Zm1.513 21.53c-3.62-3.615 1.976-9.077 5.538-5.442 3.536 3.608-1.902 9.073-5.538 5.442" fill="#3e4095"/><path d="M234.575 10.678c3.416-.578 5.72 2.451 4.339 5.554l-7.801 7.921c-3.5 2.266-7.588-1.746-5.442-5.257.618-1.01 6.288-6.649 7.372-7.478.425-.324 1.004-.651 1.532-.74m6.164 3.623c1.316 1.473 4.755 3.897 5.056 5.859.421 2.756-1.798 5.045-4.577 4.571-1.818-.308-3.37-2.548-4.663-3.735 1.567-2.174 4.555-3.577 4.184-6.695m-6.164-12.874c6.172-1.052 6.048 8.873-.177 7.601-3.86-.786-3.813-6.918.177-7.601" fill="#00a859"/><path d="M254.13 17.127c3.389-.575 5.932 2.879 4.099 5.839-.514.829-6.839 7.181-7.665 7.705-3.266 2.081-7.372-1.473-5.547-5.019.448-.875 6.569-7.015 7.584-7.789.425-.324 1.004-.652 1.533-.74Zm.922-1.442c-3.026-.316-4.585 2.436-6.553 4.19-1.888-2.116-4.998-3.72-3.563-7.046.714-1.654 2.513-2.428 4.25-2.186 1.999.278 4.357 3.72 5.87 5.046Zm8.881 1.442c1.282-.093 2.822.751 3.501 1.819 2.285 3.584-2.246 7.905-5.743 5.037-2.717-2.223-1.162-6.614 2.242-6.856" fill="#ed3237"/><path d="M238.642 25.023c.95 1.122 1.015 2.895.379 4.186-.46.929-6.237 6.691-7.307 7.539-3.458 2.741-7.931-.682-6.04-4.633.529-1.106 5.901-6.467 7.082-7.416 1.278-1.021 3.08-1.657 4.609-.755.147.085 1.173.96 1.277 1.083Zm-9.73 14.08c3.08.397 4.613-2.432 6.704-4.004 1.097 1.271 3.451 2.775 3.74 4.478.263 1.546-.243 3.057-1.543 3.963-3.706 2.574-6.558-2.274-8.905-4.441Zm-9.475-9.212c1.447-.158 2.991.694 3.744 1.935 2.188 3.608-2.424 7.717-5.805 4.926-2.628-2.17-1.22-6.502 2.065-6.857Z" fill="#ec268f"/><path d="M9.326 69.177c-1.84 0-3.455-.401-4.855-1.203a8.67 8.67 0 0 1-3.287-3.297C.392 63.281 0 61.692 0 59.895s.392-3.465 1.184-4.869a8.74 8.74 0 0 1 3.287-3.329c1.4-.819 3.023-1.22 4.855-1.22 2.336 0 4.295.618 5.879 1.845 1.592 1.228 2.599 2.945 3.023 5.135h-5.615c-.215-.754-.615-1.348-1.199-1.773-.592-.425-1.296-.634-2.12-.634-.776 0-1.456.193-2.031.586s-1.032.946-1.36 1.668q-.494 1.081-.496 2.535c0 .73.096 1.396.28 1.982q.288.888.792 1.524c.344.425.744.746 1.215.971s1 .336 1.592.336 1.064-.096 1.504-.28a3.2 3.2 0 0 0 1.128-.819 3.35 3.35 0 0 0 .687-1.307h5.615c-.424 2.126-1.439 3.81-3.039 5.062-1.6 1.251-3.559 1.877-5.863 1.877Zm20.628 0q-2.58 0-4.631-1.203c-1.368-.803-2.448-1.91-3.247-3.313-.8-1.404-1.2-3.009-1.2-4.798s.4-3.465 1.2-4.869a8.8 8.8 0 0 1 3.263-3.313q2.064-1.204 4.607-1.204c1.696 0 3.295.401 4.663 1.204q2.05 1.205 3.247 3.313 1.2 2.106 1.2 4.837 0 2.732-1.2 4.838a8.9 8.9 0 0 1-3.247 3.313c-1.368.802-2.919 1.203-4.663 1.203Zm0-4.605c.704 0 1.336-.176 1.888-.529q.825-.528 1.327-1.597c.328-.706.496-1.58.496-2.623s-.168-1.909-.496-2.623c-.328-.706-.768-1.243-1.303-1.596q-.816-.53-1.872-.53-1.058 0-1.888.53c-.83.53-.991.882-1.327 1.596s-.496 1.58-.496 2.623.168 1.909.496 2.623c.328.706.767 1.244 1.327 1.597a3.37 3.37 0 0 0 1.856.529Zm25.779 11.969V66.409a6.8 6.8 0 0 1-2.192 1.982q-1.343.78-3.287.778c-1.624 0-3.087-.409-4.383-1.219q-1.944-1.228-3.072-3.346c-.751-1.42-1.127-3.008-1.127-4.781s.384-3.393 1.143-4.797q1.154-2.104 3.088-3.329c1.934-1.225 2.743-1.22 4.343-1.22.848 0 1.616.105 2.295.321q1.022.316 1.816.883.794.566 1.36 1.347l.6-2.125h4.695v25.646h-5.295Zm-4.239-12.009q1.305 0 2.311-.602a4 4 0 0 0 1.552-1.684c.368-.722.544-1.532.544-2.431 0-.898-.184-1.733-.544-2.447a4.15 4.15 0 0 0-1.552-1.668q-1.006-.602-2.311-.602c-.872 0-1.608.201-2.28.602a4.14 4.14 0 0 0-1.568 1.668c-.375.706-.567 1.509-.567 2.407s.192 1.741.567 2.463a4.2 4.2 0 0 0 1.568 1.684q1.008.602 2.28.602Zm19.924 4.645c-1.488 0-2.736-.305-3.76-.923-1.023-.617-1.799-1.516-2.335-2.711-.528-1.195-.792-2.647-.792-4.372V50.895h5.295v9.738q0 1.986.816 3.033.816 1.045 2.615 1.043a3.9 3.9 0 0 0 1.96-.498c.576-.329 1.024-.818 1.344-1.452.32-.633.48-1.42.48-2.334v-9.53h5.294v17.857h-4.631l-.424-2.832q-.777 1.456-2.263 2.358-1.488.905-3.599.907Zm23.347 0c-1.84 0-3.447-.385-4.839-1.155a8.3 8.3 0 0 1-3.263-3.225q-1.186-2.07-1.184-4.765c.002-2.695.392-3.482 1.168-4.926a8.7 8.7 0 0 1 3.247-3.401c1.392-.827 2.999-1.236 4.839-1.236s3.359.393 4.695 1.172a8.5 8.5 0 0 1 3.159 3.168c.768 1.332 1.144 2.872 1.144 4.621 0 .233 0 .505-.016.794-.016.297-.04.594-.088.907H89.254V58.05h9.078q-.072-1.49-1.08-2.39c-.671-.602-1.503-.907-2.487-.907-.752 0-1.44.177-2.048.53-.616.353-1.103.882-1.463 1.596-.368.706-.544 1.604-.544 2.695v1.059q0 1.238.48 2.198a3.5 3.5 0 0 0 1.375 1.485q.9.53 2.136.529 1.162 0 1.928-.481c.503-.321.903-.73 1.183-1.22h5.407a7.9 7.9 0 0 1-1.695 3.065 8.7 8.7 0 0 1-2.936 2.158q-1.727.794-3.815.794Zm21.796-.698c-1.624 0-3.088-.393-4.4-1.171-1.303-.778-2.335-1.869-3.087-3.273s-1.128-3.033-1.128-4.87.376-3.561 1.128-4.941 1.784-2.471 3.087-3.257c1.304-.794 2.776-1.188 4.4-1.188 2.071 0 3.799.538 5.175 1.613s2.255 2.495 2.631 4.268h-2.471c-.256-1.18-.88-2.094-1.856-2.744s-2.136-.971-3.479-.971c-1.08 0-2.088.265-3 .795-.92.529-1.663 1.331-2.223 2.39-.568 1.059-.848 2.407-.848 4.035 0 1.204.168 2.255.496 3.153s.784 1.645 1.359 2.246a5.8 5.8 0 0 0 1.944 1.364q1.08.457 2.28.457c.871 0 1.679-.144 2.415-.441a5.1 5.1 0 0 0 1.888-1.292c.52-.569.856-1.251 1.024-2.053h2.471q-.528 2.587-2.615 4.236c-1.392 1.099-3.12 1.644-5.191 1.644m17.66 0c-1.624 0-3.087-.385-4.399-1.155s-2.336-1.853-3.087-3.257q-1.128-2.106-1.128-4.91c0-1.869.384-3.602 1.144-4.997.767-1.396 1.807-2.471 3.127-3.241 1.32-.771 2.791-1.148 4.415-1.148s3.191.386 4.487 1.148c1.296.77 2.32 1.845 3.071 3.241.752 1.395 1.128 3.056 1.128 4.997 0 1.942-.384 3.506-1.152 4.91s-1.799 2.495-3.111 3.257-2.807 1.155-4.503 1.155Zm.032-2.126a5.93 5.93 0 0 0 3.055-.818q1.39-.819 2.264-2.431.864-1.614.864-3.987c0-1.58-.28-2.944-.848-4.003-.568-1.067-1.312-1.861-2.24-2.39a6.06 6.06 0 0 0-3.055-.795 5.75 5.75 0 0 0-2.999.819c-.944.545-1.704 1.339-2.28 2.39s-.864 2.383-.864 3.987.28 2.912.848 3.987q.85 1.612 2.24 2.431a5.86 5.86 0 0 0 3.023.818Zm10.742 1.701V50.197h2.263l.144 3.184c.568-1.131 1.384-2.021 2.456-2.655s2.263-.955 3.583-.955 2.552.273 3.567.819 1.8 1.363 2.368 2.462.848 2.495.848 4.196v10.806h-2.472V57.529c0-1.885-.416-3.297-1.239-4.212q-1.238-1.382-3.496-1.38c-1.064 0-2.007.257-2.839.763q-1.258.758-1.976 2.214c-.48.97-.728 2.158-.728 3.577v9.563h-2.471Zm17.652 0V50.197h2.264l.144 3.184c.568-1.131 1.384-2.021 2.455-2.655s2.264-.955 3.584-.955c1.319 0 2.551.273 3.567.819s1.8 1.363 2.367 2.462c.568 1.1.848 2.495.848 4.196v10.806h-2.471V57.529c0-1.885-.416-3.297-1.24-4.212-.824-.922-1.992-1.38-3.495-1.38-1.064 0-2.008.257-2.84.763-.84.505-1.495 1.243-1.975 2.214s-.728 2.158-.728 3.577v9.563h-2.472Zm25.291.425c-1.647 0-3.103-.393-4.359-1.171-1.264-.778-2.247-1.869-2.967-3.273q-1.08-2.104-1.08-4.942c0-1.893.352-3.53 1.056-4.925s1.703-2.471 2.983-3.241 2.76-1.148 4.431-1.148 3.176.394 4.383 1.172a7.6 7.6 0 0 1 2.736 3.048q.936 1.88.936 4.107v.73c0 .249-.016.538-.032.867h-14.621v-2.094h12.253c-.072-1.821-.64-3.225-1.712-4.212-1.071-.994-2.423-1.484-4.047-1.484a6.15 6.15 0 0 0-2.935.73c-.92.482-1.656 1.196-2.208 2.126-.552.931-.832 2.11-.832 3.522v.922c0 1.605.288 2.945.864 4.004.576 1.066 1.328 1.853 2.24 2.374a5.76 5.76 0 0 0 2.895.778c1.344 0 2.448-.305 3.32-.906q1.307-.905 1.871-2.495h2.44a7.5 7.5 0 0 1-1.448 2.816c-.68.842-1.544 1.5-2.575 1.981-1.04.481-2.24.73-3.6.73Zm17.765 0c-1.624 0-3.088-.393-4.399-1.171-1.304-.778-2.336-1.869-3.088-3.273s-1.128-3.033-1.128-4.87.376-3.561 1.128-4.941 1.784-2.471 3.088-3.257c1.303-.794 2.775-1.188 4.399-1.188 2.071 0 3.799.538 5.175 1.613s2.255 2.495 2.631 4.268h-2.471c-.256-1.18-.88-2.094-1.856-2.744s-2.136-.971-3.479-.971c-1.08 0-2.088.265-3 .795-.92.529-1.663 1.331-2.223 2.39-.568 1.059-.848 2.407-.848 4.035 0 1.204.168 2.255.496 3.153q.494 1.347 1.36 2.246a5.8 5.8 0 0 0 1.943 1.364q1.08.457 2.28.457c.872 0 1.679-.144 2.415-.441a5.1 5.1 0 0 0 1.888-1.292c.52-.569.856-1.251 1.024-2.053h2.471q-.528 2.587-2.615 4.236c-1.392 1.099-3.12 1.644-5.191 1.644m16.004-.425q-1.523 0-2.615-.481-1.092-.48-1.68-1.597c-.392-.746-.584-1.765-.584-3.064v-10.59h-3.111v-2.125h3.111l.352-4.148h2.12v4.18h5.335v2.093H219.3v10.59c0 1.179.232 1.981.704 2.39s1.304.618 2.503.618h1.84v2.126h-2.648Zm10.238.425q-2.157.002-3.583-.778c-.952-.522-1.664-1.195-2.119-2.022a5.54 5.54 0 0 1-.688-2.727q0-1.843.935-3.121c.624-.85 1.504-1.484 2.648-1.909q1.715-.636 3.935-.634h4.807q0-1.73-.528-2.944c-.352-.81-.864-1.412-1.535-1.821-.672-.409-1.528-.618-2.56-.618-1.224 0-2.271.305-3.143.923s-1.416 1.508-1.624 2.695h-2.575c.144-1.251.567-2.302 1.287-3.152a6.9 6.9 0 0 1 2.688-1.934 8.9 8.9 0 0 1 3.375-.658q2.436 0 4.007.939a5.77 5.77 0 0 1 2.328 2.567c.504 1.083.76 2.343.76 3.754v11.015h-2.264l-.104-3.257a6.8 6.8 0 0 1-.904 1.42 6.3 6.3 0 0 1-1.271 1.171q-.72.494-1.68.794c-.64.201-1.368.305-2.192.305Zm.288-2.198c.896 0 1.68-.177 2.368-.529a5.7 5.7 0 0 0 1.768-1.42 6.2 6.2 0 0 0 1.127-2.022 7.1 7.1 0 0 0 .392-2.302v-.634h-4.623q-1.872 0-2.999.457-1.13.46-1.624 1.244-.494.782-.496 1.805c0 .681.16 1.283.48 1.789.32.505.784.906 1.4 1.187.608.281 1.352.425 2.223.425Z" fill="#feecd6"/></svg>
