<svg width="0" height="0" xmlns="http://www.w3.org/2000/svg">
  <!-- Instagram Icon -->
  <symbol id="icon-instagram" viewBox="0 0 24 24" fill="none" stroke="currentColor" stroke-width="1.5">
    <rect x="2" y="2" width="20" height="20" rx="5" ry="5"/>
    <path d="M12 16a4 4 0 1 0 0-8 4 4 0 0 0 0 8z"/>
    <circle cx="17.5" cy="6.5" r="1.5"/>
  </symbol>

  <!-- Globe Icon -->
  <symbol id="icon-globe" viewBox="0 0 24 24" fill="none" stroke="currentColor" stroke-width="1.5">
    <circle cx="12" cy="12" r="10"/>
    <path d="M2 12h20M12 2a15.3 15.3 0 0 1 4 10 15.3 15.3 0 0 1-4 10 15.3 15.3 0 0 1-4-10 15.3 15.3 0 0 1 4-10z"/>
  </symbol>

  <!-- Twitter/X Icon -->
  <symbol id="icon-twitter" viewBox="0 0 24 24" fill="none" stroke="currentColor" stroke-width="1.5">
    <path d="M4 4l16 16M20 4L4 20"/>
  </symbol>

  <!-- YouTube Icon -->
  <symbol id="icon-youtube" viewBox="0 0 24 24" fill="currentColor">
    <path d="M10 8v8l5.5-4-5.5-4z"/>
    <rect x="2" y="3" width="20" height="18" rx="2.18" ry="2.18"/>
  </symbol>
</svg>
